:SAMPLES-PER-SECOND 30
:FULLY-SPECIFIED
:DEGREES
261
root  35.1037063 36.48971197 -14.95077929 9.09715271 3.667085648 3.530637264
lowerback  -8.3792696 0.444951117 0.8595699668
upperback  -3.843369961 0.1958090067 -3.149760008
thorax  0.7346940041 -0.09816820174 -3.726160049
lowerneck  -16.52869987 -0.9016789794 -0.2422090024
upperneck  13.26239967 -2.316439867 5.832479954
head  6.847640038 -0.6741290092 1.676089287
lclavicle  0 -4.497500157e-015 -2.743230041e-014
lhumerus  -43.75930023 25.69820023 70.42050171
lradius  -0.1093636379 -6.507048965e-006 28.56119919
lwrist  4.824992743e-007 -3.790274832e-007 -28.4382
lhand  -4.420174749e-031 -36.97809982 -10.30860043
lfingers  90 7.125020027 -90
lthumb  94.77435353 -25.14851151 101.1190284
rclavicle  0 -4.497500157e-015 -2.743230041e-014
rhumerus  -39.47079849 -9.775319099 -66.85399628
rradius  -5.16745672e-007 2.214343908e-008 105.4069977
rwrist  1.380293725e-006 2.528095422e-007 -177.5559998
rhand  -1.768194992e-031 3.126859903 -5.512639999
rfingers  -90 -7.125020027 -90
rthumb  -84.36537621 -10.21612291 -60.91412058
rfemur  -12.36386013 13.7171545 13.75858212
rtibia  -1.599449039 1.153557301 22.12074852
rfoot  -1.241149187 -17.87667847 -41.00394821
rtoes  3.792172376 19.65166584 -101.1497151
lfemur  -10.43556499 -20.29383087 -18.90910912
ltibia  1.720284462 0.634229064 16.31022835
lfoot  0.6911771894 -27.63156891 34.38243484
ltoes  -8.652820903 -18.10082826 -116.0960369
262
root  35.1016758 36.48939058 -14.95210392 9.084023476 3.573107958 3.507197142
lowerback  -8.367811203 0.4209899306 0.8976253867
upperback  -3.840199947 0.1622850001 -3.124200106
thorax  0.7293720245 -0.1144569963 -3.724030018
lowerneck  -16.5366993 -0.8086640239 -0.2143999934
upperneck  13.33139992 -2.192110062 5.785369873
head  6.866189957 -0.6151010394 1.669357419
lclavicle  0 -4.497500157e-015 -2.743230041e-014
lhumerus  -43.72779846 25.62879944 70.51930237
lradius  -0.1090819538 -6.507048965e-006 28.59230042
lwrist  4.824992743e-007 -3.790274832e-007 -28.19669914
lhand  -0 -37.00360107 -10.32610035
lfingers  90 7.125020027 -90
lthumb  94.78985566 -25.16480841 101.1478074
rclavicle  0 -4.497500157e-015 -2.743230041e-014
rhumerus  -40.52009964 -10.10980034 -67.1835022
rradius  -5.16745672e-007 2.214343908e-008 104.6149979
rwrist  1.380293725e-006 2.528095422e-007 -177.4519958
rhand  -1.767986048e-031 3.000349998 -5.465099812
rfingers  -90 -7.125020027 -90
rthumb  -84.37368804 -10.25176742 -61.03400094
rfemur  -12.37667465 13.74491119 13.76737595
rtibia  -1.585788727 1.150686026 22.1214447
rfoot  -1.228095651 -17.91558075 -40.94281769
rtoes  3.755000679 19.65853021 -101.0392026
lfemur  -10.42261505 -20.25718307 -18.88227272
ltibia  1.701206565 0.630345881 16.31932449
lfoot  0.7083620429 -27.6231823 34.4716568
ltoes  -8.629319706 -18.11175108 -116.0204171
263
root  35.10032113 36.48874178 -14.95373643 9.068266869 3.495117426 3.499898911
lowerback  -8.356188774 0.4030880928 0.9508937597
upperback  -3.841159344 0.1348980069 -3.105839968
thorax  0.7177699804 -0.1283770055 -3.737449884
lowerneck  -16.52599907 -0.7187550068 -0.1703490019
upperneck  13.37010002 -2.076700211 5.75094986
head  6.872260094 -0.5596389174 1.664550066
lclavicle  0 -4.497500157e-015 -2.743230041e-014
lhumerus  -43.69120026 25.58399963 70.59079742
lradius  -0.1087976694 -6.507048965e-006 28.57219887
lwrist  4.824992743e-007 -3.790274832e-007 -28.10680008
lhand  -4.421342876e-031 -36.99819946 -10.31470013
lfingers  90 7.125020027 -90
lthumb  94.78494439 -25.15386068 101.1410289
rclavicle  0 -4.497500157e-015 -2.743230041e-014
rhumerus  -41.48220062 -10.60179901 -67.47810364
rradius  -5.16745672e-007 2.214343908e-008 103.6470032
rwrist  1.380293725e-006 2.528095422e-007 -177.0679932
rhand  -0 2.493890047 -5.661300182
rfingers  -90 -7.125020027 -90
rthumb  -84.59472947 -10.05613829 -61.54728048
rfemur  -12.37831306 13.82685566 13.77118778
rtibia  -1.578511715 1.150515199 22.12452698
rfoot  -1.242966771 -17.93645287 -40.98138428
rtoes  3.767583217 19.65621452 -101.0766067
lfemur  -10.40333176 -20.1593914 -18.88546562
ltibia  1.695219994 0.6429405212 16.32294464
lfoot  0.7116805315 -27.66174316 34.46458817
ltoes  -8.651398948 -18.10149021 -116.0914603
264
root  35.09140916 36.4903848 -14.94646748 9.108023643 3.397954702 3.5067451
lowerback  -8.230730057 0.3952559531 1.10860014
upperback  -3.843942642 0.1164430007 -3.104490042
thorax  0.6496379972 -0.1382700056 -3.826430082
lowerneck  -16.53730011 -0.6305639744 -0.1382270008
upperneck  13.43190002 -1.966109872 5.734189987
head  6.89015007 -0.5049930215 1.666100025
lclavicle  0 -4.497500157e-015 -2.743230041e-014
lhumerus  -43.65309906 25.5114994 70.65940094
lradius  -0.1085107848 -6.507048965e-006 28.56439972
lwrist  4.824992743e-007 -3.790274832e-007 -27.98060036
lhand  -4.421982745e-031 -37.00920105 -10.30490017
lfingers  90 7.125020027 -90
lthumb  94.78796417 -25.14384304 101.1519643
rclavicle  0 -4.497500157e-015 -2.743230041e-014
rhumerus  -42.35039902 -11.08090115 -67.76730347
rradius  -5.16745672e-007 2.214343908e-008 102.5439987
rwrist  1.380293725e-006 2.528095422e-007 -176.7089996
rhand  -1.767090334e-031 2.382730007 -5.622010231
rfingers  -90 -7.125020027 -90
rthumb  -84.60288007 -10.08548663 -61.65280633
rfemur  -12.45808983 13.76656055 13.7728653
rtibia  -1.591577053 1.080447912 22.1680088
rfoot  -1.255098701 -18.09502792 -40.87817383
rtoes  3.784190513 19.65314576 -101.1259817
lfemur  -10.45521736 -20.15367126 -18.86544991
ltibia  1.697275758 0.6078345776 16.32385063
lfoot  0.6948824525 -27.55511665 34.46546936
ltoes  -8.646034172 -18.1039864 -116.0741947
265
root  35.08854964 36.49181156 -14.94376716 9.133153915 3.305551291 3.482839346
lowerback  -8.138500214 0.3843879998 1.169799209
upperback  -3.847256899 0.09896539897 -3.095969915
thorax  0.5914630294 -0.1475510001 -3.853219986
lowerneck  -16.51339912 -0.5883020163 -0.1786819994
upperneck  13.44569969 -1.903290033 5.755980015
head  6.888989925 -0.475053966 1.686600089
lclavicle  0 -4.497500157e-015 -2.743230041e-014
lhumerus  -43.65810013 25.44860077 70.72779846
lradius  -0.1082212999 -6.507048965e-006 28.59309959
lwrist  4.824992743e-007 -3.790274832e-007 -27.94379997
lhand  -0 -37.01309967 -10.31019974
lfingers  90 7.125020027 -90
lthumb  94.79084903 -25.1488318 101.1565281
rclavicle  0 -4.497500157e-015 -2.743230041e-014
rhumerus  -43.24240112 -11.54139996 -68.00340271
rradius  -5.16745672e-007 2.214343908e-008 101.4329987
rwrist  1.380293725e-006 2.528095422e-007 -176.5460052
rhand  -1.767212606e-031 2.476170063 -5.422440052
rfingers  -90 -7.125020027 -90
rthumb  -84.48345949 -10.26532806 -61.54421176
rfemur  -12.48649311 13.72554016 13.77348328
rtibia  -1.578211784 1.020887136 22.12811852
rfoot  -1.2328403 -18.21905518 -40.79104996
rtoes  3.79573557 19.65100414 -101.1603105
lfemur  -10.53497887 -20.07126427 -18.80475044
ltibia  1.653567553 0.6105202436 16.40211868
lfoot  0.6931644678 -27.58451271 34.44001007
ltoes  -8.647682594 -18.10321961 -116.0794996
